HIERARCHY
ROOT RootJoint
{
    OFFSET   0.000000   0.000000   0.000000
    CHANNELS 6 Xposition Yposition Zposition Xrotation Yrotation Zrotation
    JOINT pelvis_lowerback
    {
        OFFSET   0.000000   0.093605   0.000000
        CHANNELS 3 Xrotation Yrotation Zrotation
        JOINT lowerback_torso
        {
            OFFSET   0.000000   0.100000   0.000000
            CHANNELS 3 Xrotation Yrotation Zrotation
            JOINT torso_head
            {
                OFFSET   0.000000   0.282350   0.000000
                CHANNELS 3 Xrotation Yrotation Zrotation
                End Site
                {
                    OFFSET   0.000000   0.192650   0.000000
                }
            }
            JOINT rTorso_Clavicle
            {
                OFFSET  -0.001000   0.157500   0.000000
                CHANNELS 3 Xrotation Yrotation Zrotation
                JOINT rShoulder
                {
                    OFFSET  -0.117647   0.000000   0.000000
                    CHANNELS 3 Xrotation Yrotation Zrotation
                    JOINT rElbow
                    {
                        OFFSET  -0.245000   0.000000   0.000000
                        CHANNELS 3 Xrotation Yrotation Zrotation
                        JOINT rWrist
                        {
                            OFFSET  -0.240000   0.000000   0.000000
                            CHANNELS 3 Xrotation Yrotation Zrotation
                            End Site
                            {
                                OFFSET  -0.116353  -0.002500   0.000000
                            }
                        }
                    }
                }
            }
            JOINT lTorso_Clavicle
            {
                OFFSET   0.001000   0.157500   0.000000
                CHANNELS 3 Xrotation Yrotation Zrotation
                JOINT lShoulder
                {
                    OFFSET   0.117647   0.000000   0.000000
                    CHANNELS 3 Xrotation Yrotation Zrotation
                    JOINT lElbow
                    {
                        OFFSET   0.245000   0.000000   0.000000
                        CHANNELS 3 Xrotation Yrotation Zrotation
                        JOINT lWrist
                        {
                            OFFSET   0.240000   0.000000   0.000000
                            CHANNELS 3 Xrotation Yrotation Zrotation
                            End Site
                            {
                                OFFSET   0.116353  -0.002500   0.000000
                            }
                        }
                    }
                }
            }
        }
    }
    JOINT rHip
    {
        OFFSET  -0.100000  -0.051395   0.000000
        CHANNELS 3 Xrotation Yrotation Zrotation
        JOINT rKnee
        {
            OFFSET   0.000000  -0.410000   0.000000
            CHANNELS 3 Xrotation Yrotation Zrotation
            JOINT rAnkle
            {
                OFFSET   0.000000  -0.390000   0.000000
                CHANNELS 3 Xrotation Yrotation Zrotation
                JOINT rToeJoint
                {
                    OFFSET   0.000000  -0.050000   0.130000
                    CHANNELS 3 Xrotation Yrotation Zrotation
                    End Site
                    {
                        OFFSET  -0.010000   0.002000   0.060000
                    }
                }
            }
        }
    }
    JOINT lHip
    {
        OFFSET   0.100000  -0.051395   0.000000
        CHANNELS 3 Xrotation Yrotation Zrotation
        JOINT lKnee
        {
            OFFSET   0.000000  -0.410000   0.000000
            CHANNELS 3 Xrotation Yrotation Zrotation
            JOINT lAnkle
            {
                OFFSET   0.000000  -0.390000   0.000000
                CHANNELS 3 Xrotation Yrotation Zrotation
                JOINT lToeJoint
                {
                    OFFSET   0.000000  -0.050000   0.130000
                    CHANNELS 3 Xrotation Yrotation Zrotation
                    End Site
                    {
                        OFFSET   0.010000   0.002000   0.060000
                    }
                }
            }
        }
    }
}
MOTION
Frames: 14
Frame Time:   0.008333
 -2.351542   1.011936   4.031000   7.252644  -7.095692 -12.707437  -1.255543   1.056774  14.046429  -3.919366  -1.433665   2.756531  -6.452942  -1.419476  -2.422240   5.508395  -3.452188  -6.643461   6.304688   5.388799  48.464345   0.001593  24.175318  -0.000906   4.312099   0.612095  -5.643569   8.476628   7.647992   1.846052  13.187607  -6.962028 -49.707595  -0.004432 -22.760306  -0.003624   1.763236  -7.563214   3.927836 -20.469937  -4.384369   8.536448  40.130595   0.010225   0.014255   2.137438  -6.620900   7.829806   1.799083  -0.011108  -0.010911 -24.564659   1.608716  18.160890  29.937583   0.016713   0.000141  38.037384   5.174531  -3.741434 -32.758820   0.022309  -0.011087
 -2.349992   1.024514   4.033369   7.335096  -7.330851 -11.844060  -2.190203   1.240898  13.079090  -3.683239  -1.520178   3.120984  -6.217871  -1.166551  -2.375189   5.791004  -3.576130  -6.151557   6.625703   5.425435  47.952116   0.000854  23.990820  -0.000643   4.375082   0.484505  -6.109723   8.887176   7.523028   1.495976  13.671778  -6.758190 -49.208212  -0.002889 -22.523371  -0.002984   1.729854  -7.249243   4.287704 -19.818093  -4.187467   7.449023  38.804222   0.007120   0.018379   3.936686  -6.485538   8.247176   2.276882  -0.010059  -0.011227 -23.721394   2.045773  17.011807  28.765616   0.011507   0.006044  35.366316   5.277819  -4.141348 -27.682181   0.049773  -0.024819
 -2.348477   1.036497   4.034912   7.394598  -7.513835 -10.686769  -2.904896   1.452943  11.839975  -3.375557  -1.638924   3.225841  -5.983267  -0.908133  -2.381974   6.054753  -3.626999  -5.421320   6.901933   5.515859  47.659609  -0.000104  23.828933  -0.000183   4.444627   0.426677  -6.344506   9.187927   7.253915   1.051241  14.033484  -6.646797 -48.777800  -0.002535 -22.313476  -0.003076   1.695231  -6.836587   4.653525 -19.294133  -3.913236   5.996199  37.257512   0.003100   0.022500   5.621019  -6.354266   8.628684   2.815116  -0.009127  -0.011479 -23.023562   2.493422  15.631780  28.050169   0.008240   0.008067  32.838183   5.382911  -4.514183 -23.380677   0.062562  -0.035756
 -2.347178   1.047853   4.035913   7.445941  -7.686543  -9.517813  -3.471213   1.658380  10.584420  -3.030069  -1.777361   3.221983  -5.744570  -0.665069  -2.417942   6.303288  -3.638575  -4.617788   7.148820   5.633244  47.484900  -0.000905  23.688290   0.000225   4.520490   0.438802  -6.352128   9.423710   6.932442   0.532687  14.319339  -6.600857 -48.452582  -0.002673 -22.142824  -0.003346   1.669556  -6.531053   4.880297 -18.898298  -3.651823   4.517028  35.692092  -0.000631   0.025382   7.187440  -6.223944   8.980380   3.307057  -0.008241  -0.011208 -22.381954   2.903990  14.352419  27.462475   0.006282   0.008712  30.483965   5.494447  -4.861790 -19.455313   0.065691  -0.042701
 -2.346108   1.058548   4.036548   7.494627  -7.848956  -8.391983  -3.930065   1.842647   9.356041  -2.669194  -1.934380   3.160152  -5.508172  -0.438825  -2.464049   6.539832  -3.634902  -3.800587   7.377407   5.757464  47.375465  -0.001488  23.561181   0.000523   4.598323   0.487329  -6.224702   9.614605   6.588392  -0.033233  14.553359  -6.598699 -48.211086  -0.002933 -22.001757  -0.003588   1.653580  -6.333562   4.971977 -18.612160  -3.416653   3.080875  34.177144  -0.003752   0.026904   8.645362  -6.094374   9.305572   3.749865  -0.007400  -0.010584 -21.769938   3.270624  13.219850  26.932013   0.005182   0.008679  28.288444   5.612173  -5.184063 -15.861194   0.062669  -0.045819
 -2.345242   1.068554   4.036933   7.542155  -7.997554  -7.319967  -4.309269   2.000123   8.165810  -2.306241  -2.108900   3.058216  -5.278361  -0.228545  -2.513698   6.767303  -3.629395  -2.999917   7.594450   5.877371  47.303499  -0.001873  23.442648   0.000713   4.674459   0.544928  -6.024281   9.771258   6.236685  -0.622153  14.749113  -6.625945 -48.031245  -0.003159 -21.882904  -0.003736   1.645343  -6.216338   4.960884 -18.413156  -3.204292   1.704093  32.732708  -0.006233   0.027272  10.003127  -5.966261   9.606476   4.148771  -0.006598  -0.009754 -21.177729   3.597455  12.228015  26.443461   0.004634   0.008241  26.240101   5.734143  -5.482015 -12.569092   0.056244  -0.045765
 -2.344551   1.077856   4.037145   7.588976  -8.131473  -6.302651  -4.628568   2.129882   7.017432  -1.949484  -2.298605   2.925264  -5.057659  -0.033085  -2.564509   6.987425  -3.628730  -2.232516   7.803563   5.987283  47.252522  -0.002091  23.329900   0.000810   4.746849   0.595375  -5.787983   9.900502   5.886117  -1.215938  14.915291  -6.672855 -47.896118  -0.003300 -21.781257  -0.003783   1.642772  -6.156530   4.877546 -18.282356  -3.009586   0.390791  31.363831  -0.008115   0.026767  11.268055  -5.840390   9.884933   4.508870  -0.005840  -0.008828 -20.601178   3.889862  11.361783  25.992651   0.004420   0.007568  24.328939   5.858420  -5.756981  -9.552777   0.048283  -0.043391
 -2.344133   1.086332   4.036885   7.387803  -8.264432  -5.539392  -4.431023   2.238654   6.105289  -1.751072  -2.374477   2.749733  -4.865562   0.092044  -2.512586   6.991940  -3.639194  -1.455956   8.081655   6.062124  46.996630  -0.001274  23.454789   0.000420   4.762016   0.404632  -5.451472   9.780468   5.545384  -1.704438  14.915800  -6.551042 -47.699585  -0.003121 -21.686475  -0.003447   1.638395  -6.071738   4.548214 -18.040304  -2.708087  -0.604700  30.493469  -0.008427   0.023037  11.811390  -5.505507   9.920890   4.536533  -0.004654  -0.007033 -19.867493   4.155860  10.787320  25.508461   0.004502   0.006741  23.598207   5.752544  -5.790145  -8.299068   0.036218  -0.038454
 -2.343827   1.094042   4.036432   7.182322  -8.367931  -4.861860  -4.203751   2.326276   5.258800  -1.542178  -2.450344   2.589300  -4.672255   0.207181  -2.458728   6.966358  -3.621966  -0.773898   8.316044   6.144523  46.716680  -0.000744  23.585818   0.000087   4.781274   0.277199  -5.210298   9.631585   5.195228  -2.115724  14.888294  -6.448746 -47.471790  -0.002824 -21.607477  -0.003100   1.629538  -6.021991   4.315035 -17.811539  -2.428945  -1.486937  29.755090  -0.008227   0.019429  12.314270  -5.189179   9.951775   4.519363  -0.003740  -0.005646 -19.195582   4.382109  10.305290  25.043957   0.004548   0.005860  22.926096   5.653840  -5.822215  -7.102004   0.026773  -0.033530
 -2.343575   1.101016   4.035880   6.990159  -8.452501  -4.234712  -3.975343   2.401916   4.457960  -1.339062  -2.525959   2.433722  -4.486250   0.314510  -2.408941   6.926594  -3.590034  -0.168593   8.521936   6.227355  46.429917  -0.000425  23.714223  -0.000170   4.803802   0.188653  -5.039382   9.474123   4.850102  -2.468622  14.849396  -6.359456 -47.231534  -0.002502 -21.539029  -0.002764   1.624096  -6.001843   4.154359 -17.591674  -2.172490  -2.299133  29.080858  -0.007815   0.016272  12.783997  -4.893292   9.978185   4.504406  -0.003007  -0.004535 -18.584359   4.582094   9.872443  24.597879   0.004533   0.005023  22.298532   5.562338  -5.853069  -6.003950   0.019531  -0.028861
 -2.343355   1.107270   4.035278   6.813677  -8.526908  -3.648033  -3.754012   2.469595   3.700002  -1.147249  -2.597936   2.280505  -4.310448   0.414746  -2.363634   6.879366  -3.551040   0.373352   8.706614   6.307272  46.143881  -0.000249  23.837501  -0.000356   4.827589   0.121877  -4.918034   9.316486   4.518559  -2.778368  14.806008  -6.278905 -46.989940  -0.002193 -21.477880  -0.002451   1.620730  -5.998444   4.041176 -17.378762  -1.935965  -3.053510  28.455479  -0.007289   0.013587  13.222329  -4.616843  10.000586   4.491182  -0.002418  -0.003644 -18.026270   4.761251   9.476398  24.173032   0.004458   0.004274  21.712447   5.477301  -5.882720  -4.998569   0.014000  -0.024636
 -2.343155   1.112813   4.034654   6.652447  -8.596054  -3.097631  -3.543318   2.531492   2.983795  -0.968039  -2.664561   2.129883  -4.145458   0.508385  -2.322350   6.828448  -3.509113   0.862019   8.874376   6.382849  45.863227  -0.000162  23.954597  -0.000481   4.851574   0.067760  -4.832636   9.163167   4.204638  -3.055608  14.761769  -6.204832 -46.753817  -0.001913 -21.422121  -0.002165   1.618412  -6.003165   3.958259 -17.171813  -1.717757  -3.755531  27.874032  -0.006701   0.011333  13.631299  -4.358657  10.019492   4.479223  -0.001945  -0.002929 -17.514656   4.922688   9.111562  23.770878   0.004332   0.003625  21.165208   5.398198  -5.911130  -4.077850   0.009791  -0.020914
 -2.342968   1.117651   4.034021   6.505529  -8.662416  -2.580833  -3.344753   2.588945   2.308081  -0.801405  -2.725198   1.982582  -3.991138   0.595854  -2.284578   6.776134  -3.466560   1.305293   9.028029   6.453585  45.591033  -0.000130  24.065141  -0.000558   4.875224   0.021437  -4.773668   9.016527   3.909925  -3.307541  14.718622  -6.135963 -46.527123  -0.001667 -21.370608  -0.001907   1.616584  -6.011110   3.894304 -16.970309  -1.516624  -4.408877  27.333600  -0.006086   0.009454  14.012907  -4.117574  10.035383   4.468398  -0.001565  -0.002355 -17.044336   5.068684   8.774200  23.391660   0.004163   0.003073  20.654316   5.324577  -5.938277  -3.234442   0.006608  -0.017691
 -2.342780   1.121732   4.033146   6.406274  -8.688852  -2.231955  -3.116653   2.557905   1.835506  -0.679634  -2.746858   1.880498  -3.929620   0.647534  -2.282168   6.704005  -3.384720   1.643828   9.182960   6.405839  45.348440  -0.000158  24.420590  -0.000894   4.884637  -0.087169  -4.726497   8.868307   3.696046  -3.470980  14.667028  -6.124533 -46.425271  -0.001079 -21.473035  -0.001212   1.606130  -5.948052   3.818951 -16.912135  -1.590173  -4.906218  27.094162  -0.004995   0.008081  14.176057  -3.948073  10.021033   4.302075  -0.001222  -0.001780 -16.744357   5.286739   8.633611  23.042899   0.003848   0.002067  20.416313   5.098330  -6.057162  -2.717794   0.005329  -0.014563
